<?xml version="1.0" encoding="UTF-8"?>
<svg width="32" height="32" viewBox="0 0 32 32" fill="none" xmlns="http://www.w3.org/2000/svg">
  <path d="M24.3335 8.66699C22.7335 7.93366 21.0335 7.40033 19.2668 7.13366C19.2335 7.13366 19.2002 7.15033 19.1835 7.18366C18.9835 7.55033 18.7502 8.03366 18.5835 8.41699C16.7002 8.16699 14.8335 8.16699 13.0002 8.41699C12.8335 8.03366 12.5835 7.55033 12.3835 7.18366C12.3668 7.15033 12.3335 7.13366 12.3002 7.13366C10.5335 7.40033 8.83353 7.93366 7.23353 8.66699C7.2169 8.66699 7.20023 8.68366 7.18353 8.70033C4.10023 13.3337 3.2169 17.8503 3.6169 22.317C3.6169 22.3503 3.63353 22.3837 3.65023 22.4003C5.7669 23.9503 7.8169 24.8837 9.83353 25.5003C9.8669 25.5003 9.90023 25.4837 9.91686 25.4503C10.4002 24.7837 10.8335 24.0837 11.2002 23.3503C11.2169 23.3003 11.2002 23.2503 11.1502 23.2337C10.4502 22.967 9.78353 22.6503 9.1502 22.2837C9.10023 22.2503 9.10023 22.1837 9.13353 22.1503C9.2669 22.0503 9.40023 21.9337 9.53353 21.8337C9.55023 21.817 9.58353 21.817 9.60023 21.8337C14.2002 23.9503 19.1835 23.9503 23.7335 21.8337C23.7502 21.817 23.7835 21.817 23.8002 21.8337C23.9335 21.9503 24.0669 22.0503 24.2002 22.1503C24.2335 22.1837 24.2335 22.2503 24.1835 22.2837C23.5502 22.667 22.8835 22.967 22.1835 23.2337C22.1335 23.2503 22.1169 23.317 22.1335 23.3503C22.5169 24.0837 22.9502 24.7837 23.4169 25.4503C23.4335 25.4837 23.4669 25.5003 23.5002 25.5003C25.5335 24.8837 27.5835 23.9503 29.7002 22.4003C29.7169 22.3837 29.7335 22.3503 29.7335 22.317C30.2169 17.1503 28.8335 12.667 26.0835 8.70033C26.0669 8.68366 26.0502 8.66699 26.0335 8.66699H24.3335ZM12.0835 19.6337C10.7502 19.6337 9.6502 18.417 9.6502 16.917C9.6502 15.417 10.7335 14.2003 12.0835 14.2003C13.4502 14.2003 14.5335 15.4337 14.5169 16.917C14.5169 18.417 13.4335 19.6337 12.0835 19.6337ZM20.2502 19.6337C18.9169 19.6337 17.8169 18.417 17.8169 16.917C17.8169 15.417 18.9002 14.2003 20.2502 14.2003C21.6169 14.2003 22.7002 15.4337 22.6835 16.917C22.6835 18.417 21.6169 19.6337 20.2502 19.6337Z" fill="#5865F2"/>
</svg> 