<?xml version="1.0" encoding="UTF-8"?>
<svg width="32" height="32" viewBox="0 0 32 32" fill="none" xmlns="http://www.w3.org/2000/svg">
  <path d="M16.5 9.5C17.9 9.5 19.1 9.9 20.1 10.7C21.1 11.5 21.7 12.6 21.9 13.9H25.2C24.9 11.7 23.9 9.9 22.2 8.6C20.5 7.3 18.6 6.6 16.5 6.6C14.1 6.6 12.1 7.4 10.4 9.1C8.7 10.8 7.9 12.8 7.9 15.2V16.8C7.9 19.2 8.7 21.2 10.4 22.9C12.1 24.6 14.1 25.4 16.5 25.4C18.6 25.4 20.5 24.7 22.2 23.4C23.9 22.1 24.9 20.3 25.2 18.1H21.9C21.7 19.4 21.1 20.5 20.1 21.3C19.1 22.1 17.9 22.5 16.5 22.5C14.9 22.5 13.5 21.9 12.4 20.8C11.3 19.7 10.7 18.3 10.7 16.7V15.1C10.7 13.5 11.3 12.1 12.4 11C13.5 9.9 14.9 9.5 16.5 9.5Z" fill="#4353FF"/>
</svg> 